<svg width="1440" height="1024" viewBox="0 0 1440 1024" fill="none" xmlns="http://www.w3.org/2000/svg">
<g clip-path="url(#clip0_346_803)">
<rect width="1440" height="1024" fill="white"/>
<g clip-path="url(#clip1_346_803)">
<rect x="-43" y="-46" width="1516" height="1114" rx="120" fill="#0D0A2C"/>
<g filter="url(#filter0_f_346_803)">
<path d="M956.709 83.1897C1137.29 37.1165 1153.08 -125.008 1336.5 -92.0001C1761.13 -15.5841 1593.69 750.121 1224 972.5C1001.56 1106.3 991.001 1168.28 753.023 1064.58C520.845 963.409 430.879 874.984 302.463 656.738C255.773 577.386 201.108 428.478 230.094 321.828C263.152 200.192 357.465 143.719 481.053 118.781C608.284 93.1086 732.596 140.369 956.709 83.1897Z" fill="#197871"/>
</g>
<g filter="url(#filter1_f_346_803)">
<path d="M1065.43 236.709C1220.14 197.226 1303.3 -33.2864 1460.43 -5C1824.22 60.4844 1731.72 799.433 1415 990C1224.43 1104.66 1094.81 1166.57 890.934 1077.71C692.024 991.009 614.949 915.234 504.934 728.209C464.934 660.209 418.102 532.602 442.934 441.209C471.255 336.973 552.055 288.579 657.934 267.209C766.934 245.209 873.434 285.709 1065.43 236.709Z" fill="#019B64"/>
</g>
<g filter="url(#filter2_f_346_803)">
<ellipse cx="1170.1" cy="710.399" rx="441.567" ry="379" transform="rotate(21.9106 1170.1 710.399)" fill="#00FFE0"/>
</g>
</g>
</g>
<defs>
<filter id="filter0_f_346_803" x="-378" y="-696.398" width="2565.12" height="2413.01" filterUnits="userSpaceOnUse" color-interpolation-filters="sRGB">
<feFlood flood-opacity="0" result="BackgroundImageFix"/>
<feBlend mode="normal" in="SourceGraphic" in2="BackgroundImageFix" result="shape"/>
<feGaussianBlur stdDeviation="300" result="effect1_foregroundBlur_346_803"/>
</filter>
<filter id="filter1_f_346_803" x="36" y="-407.398" width="2059.5" height="1927.35" filterUnits="userSpaceOnUse" color-interpolation-filters="sRGB">
<feFlood flood-opacity="0" result="BackgroundImageFix"/>
<feBlend mode="normal" in="SourceGraphic" in2="BackgroundImageFix" result="shape"/>
<feGaussianBlur stdDeviation="200" result="effect1_foregroundBlur_346_803"/>
</filter>
<filter id="filter2_f_346_803" x="336.584" y="-78.0105" width="1667.03" height="1576.82" filterUnits="userSpaceOnUse" color-interpolation-filters="sRGB">
<feFlood flood-opacity="0" result="BackgroundImageFix"/>
<feBlend mode="normal" in="SourceGraphic" in2="BackgroundImageFix" result="shape"/>
<feGaussianBlur stdDeviation="200" result="effect1_foregroundBlur_346_803"/>
</filter>
<clipPath id="clip0_346_803">
<rect width="1440" height="1024" fill="white"/>
</clipPath>
<clipPath id="clip1_346_803">
<rect x="-43" y="-46" width="1516" height="1114" rx="120" fill="white"/>
</clipPath>
</defs>
</svg>
