<svg width="129" height="129" viewBox="0 0 129 129" fill="none" xmlns="http://www.w3.org/2000/svg">
<circle cx="64.5611" cy="64.6258" r="63.5221" stroke="url(#paint0_linear_348_815)" stroke-width="1.6184"/>
<mask id="path-2-inside-1_348_815" fill="white">
<path d="M110.481 65.0304C111.711 65.0304 112.714 66.0286 112.657 67.2578C112.252 75.919 109.495 84.3222 104.662 91.5549C99.4164 99.4061 91.96 105.525 83.2361 109.139C74.5123 112.752 64.9128 113.698 55.6517 111.856C46.3905 110.014 37.8836 105.467 31.2066 98.7896C24.5297 92.1127 19.9826 83.6058 18.1405 74.3446C16.2983 65.0834 17.2438 55.4839 20.8573 46.7601C24.4708 38.0363 30.5901 30.5799 38.4414 25.3338C45.6741 20.5011 54.0773 17.7441 62.7385 17.3397C63.9676 17.2823 64.9658 18.2852 64.9658 19.5157V19.5157C64.9658 20.7462 63.9676 21.7377 62.7387 21.801C54.9593 22.2017 47.4168 24.6958 40.917 29.0388C33.7985 33.7952 28.2503 40.5557 24.9741 48.4653C21.6978 56.3749 20.8406 65.0785 22.5108 73.4753C24.181 81.8721 28.3037 89.585 34.3575 95.6388C40.4112 101.693 48.1242 105.815 56.521 107.485C64.9178 109.156 73.6213 108.298 81.5309 105.022C89.4406 101.746 96.201 96.1977 100.957 89.0793C105.3 82.5795 107.795 75.037 108.195 67.2575C108.259 66.0287 109.25 65.0304 110.481 65.0304V65.0304Z"/>
</mask>
<path d="M110.481 65.0304C111.711 65.0304 112.714 66.0286 112.657 67.2578C112.252 75.919 109.495 84.3222 104.662 91.5549C99.4164 99.4061 91.96 105.525 83.2361 109.139C74.5123 112.752 64.9128 113.698 55.6517 111.856C46.3905 110.014 37.8836 105.467 31.2066 98.7896C24.5297 92.1127 19.9826 83.6058 18.1405 74.3446C16.2983 65.0834 17.2438 55.4839 20.8573 46.7601C24.4708 38.0363 30.5901 30.5799 38.4414 25.3338C45.6741 20.5011 54.0773 17.7441 62.7385 17.3397C63.9676 17.2823 64.9658 18.2852 64.9658 19.5157V19.5157C64.9658 20.7462 63.9676 21.7377 62.7387 21.801C54.9593 22.2017 47.4168 24.6958 40.917 29.0388C33.7985 33.7952 28.2503 40.5557 24.9741 48.4653C21.6978 56.3749 20.8406 65.0785 22.5108 73.4753C24.181 81.8721 28.3037 89.585 34.3575 95.6388C40.4112 101.693 48.1242 105.815 56.521 107.485C64.9178 109.156 73.6213 108.298 81.5309 105.022C89.4406 101.746 96.201 96.1977 100.957 89.0793C105.3 82.5795 107.795 75.037 108.195 67.2575C108.259 66.0287 109.25 65.0304 110.481 65.0304V65.0304Z" stroke="url(#paint1_linear_348_815)" stroke-width="3.23679" mask="url(#path-2-inside-1_348_815)"/>
<path d="M76.0127 10.2588C76.0894 10.1034 76.2477 10.005 76.4211 10.005C76.5944 10.005 76.7527 10.1034 76.8295 10.2588L78.6058 13.8576C78.7729 14.1959 79.0957 14.4305 79.4692 14.4848L83.4408 15.0621C83.6124 15.0871 83.7549 15.2072 83.8085 15.3721C83.862 15.537 83.8174 15.7179 83.6933 15.839L80.8196 18.6405C80.5494 18.904 80.4261 19.2835 80.4898 19.6554L81.1679 23.6104C81.1971 23.7813 81.1269 23.9539 80.9867 24.0557C80.8464 24.1577 80.6605 24.1711 80.5071 24.0904L76.9547 22.2232C76.6206 22.0476 76.2216 22.0476 75.8875 22.2232L72.3354 24.0904C72.1819 24.1711 71.996 24.1576 71.8558 24.0557C71.7155 23.9538 71.6453 23.7811 71.6746 23.6103L72.353 19.6556C72.4168 19.2835 72.2935 18.904 72.0232 18.6404L69.1493 15.839C69.0252 15.718 68.9805 15.537 69.0341 15.3721C69.0877 15.2073 69.2302 15.0871 69.4017 15.0622L73.3733 14.4848C73.7467 14.4305 74.0696 14.196 74.2366 13.8575L76.0127 10.2588Z" fill="#FFEF5E"/>
<path d="M94.2114 22.3173C94.2659 22.2105 94.3783 22.143 94.5013 22.143C94.6244 22.1429 94.7368 22.2105 94.7913 22.3173L96.0522 24.7891C96.1708 25.0215 96.4 25.1826 96.6651 25.2199L99.4845 25.6164C99.6063 25.6335 99.7074 25.7161 99.7455 25.8293C99.7835 25.9425 99.7518 26.0668 99.6637 26.15L97.6237 28.0742C97.4319 28.2551 97.3444 28.5158 97.3896 28.7712L97.871 31.4877C97.8917 31.6051 97.8419 31.7237 97.7423 31.7936C97.6428 31.8636 97.5108 31.8728 97.4019 31.8174L94.8801 30.5349C94.643 30.4143 94.3597 30.4143 94.1226 30.5349L91.601 31.8174C91.4921 31.8728 91.3601 31.8635 91.2606 31.7935C91.161 31.7236 91.1112 31.6049 91.132 31.4876L91.6135 28.7714C91.6588 28.5158 91.5713 28.2551 91.3794 28.0741L89.3394 26.15C89.2513 26.0669 89.2195 25.9426 89.2575 25.8293C89.2956 25.7161 89.3967 25.6336 89.5185 25.6164L92.3378 25.2199C92.6029 25.1826 92.8321 25.0215 92.9507 24.789L94.2114 22.3173Z" fill="#FFEF5E"/>
<path d="M103.202 36.8248C103.24 36.7536 103.317 36.7085 103.403 36.7085C103.488 36.7085 103.566 36.7536 103.603 36.8248L104.476 38.4726C104.558 38.6276 104.717 38.735 104.901 38.7598L106.852 39.0242C106.937 39.0356 107.007 39.0906 107.033 39.1661C107.059 39.2416 107.037 39.3245 106.976 39.3799L105.564 40.6627C105.431 40.7833 105.371 40.9571 105.402 41.1274L105.735 42.9384C105.75 43.0166 105.715 43.0957 105.646 43.1423C105.577 43.189 105.486 43.1951 105.411 43.1582L103.665 42.3032C103.501 42.2228 103.305 42.2228 103.14 42.3032L101.395 43.1582C101.319 43.1951 101.228 43.1889 101.159 43.1423C101.09 43.0956 101.056 43.0165 101.07 42.9383L101.403 41.1275C101.435 40.9571 101.374 40.7833 101.241 40.6627L99.8289 39.3799C99.7679 39.3245 99.7459 39.2416 99.7722 39.1661C99.7986 39.0906 99.8686 39.0356 99.9529 39.0242L101.905 38.7598C102.088 38.735 102.247 38.6276 102.329 38.4726L103.202 36.8248Z" fill="#FFEF5E"/>
<defs>
<linearGradient id="paint0_linear_348_815" x1="105.83" y1="154.042" x2="41.499" y2="94.1616" gradientUnits="userSpaceOnUse">
<stop stop-color="#FEFFDE"/>
<stop offset="1" stop-color="#FFC9BF" stop-opacity="0"/>
</linearGradient>
<linearGradient id="paint1_linear_348_815" x1="17.2231" y1="32.6014" x2="64.9658" y2="112.773" gradientUnits="userSpaceOnUse">
<stop stop-color="#FFBE5E"/>
<stop offset="0.4375" stop-color="white"/>
<stop offset="0.703125" stop-color="#81FFD8"/>
<stop offset="1" stop-color="#80FFD6" stop-opacity="0.24"/>
</linearGradient>
</defs>
</svg>
