<svg width="21" height="13" viewBox="0 0 21 13" fill="none" xmlns="http://www.w3.org/2000/svg">
<path d="M19.3966 4.55361C19.3966 5.78727 18.843 6.89636 17.976 7.64731C19.5897 8.57559 20.6887 10.3126 20.6887 12.3058V12.5212H20.4733H19.1813H18.9659V12.3058C18.9659 10.2774 17.3336 8.64506 15.3052 8.64506C13.2767 8.64506 11.6444 10.2774 11.6444 12.3058V12.5212H11.4291H10.137H9.92168V12.3058C9.92168 10.2774 8.28935 8.64506 6.26091 8.64506C4.23247 8.64506 2.60014 10.2774 2.60014 12.3058V12.5212H2.3848H1.09276H0.877422V12.3058C0.877422 10.3123 1.97602 8.57605 3.58936 7.64774C3.18841 7.30177 2.85753 6.88059 2.61608 6.40687C2.32355 5.83296 2.17054 5.19813 2.16946 4.55397V4.55361C2.16946 2.30282 4.01012 0.462158 6.26091 0.462158C8.5117 0.462158 10.3524 2.30282 10.3524 4.55361C10.3524 5.78683 9.79913 6.89557 8.93263 7.64652C9.67869 8.07235 10.3129 8.66934 10.783 9.38802C11.253 8.66958 11.887 8.07275 12.6327 7.64695C12.2322 7.30113 11.9016 6.88023 11.6603 6.40687C11.3678 5.83296 11.2148 5.19813 11.2137 4.55397V4.55361C11.2137 2.30282 13.0544 0.462158 15.3052 0.462158C17.556 0.462158 19.3966 2.30282 19.3966 4.55361ZM15.3052 2.18487C13.988 2.18487 12.9364 3.23644 12.9364 4.55361C12.9364 5.87078 13.988 6.92234 15.3052 6.92234C16.6223 6.92234 17.6739 5.87078 17.6739 4.55361C17.6739 3.23644 16.6223 2.18487 15.3052 2.18487ZM6.26091 2.18487C4.94374 2.18487 3.89218 3.23644 3.89218 4.55361C3.89218 5.87078 4.94374 6.92234 6.26091 6.92234C7.57808 6.92234 8.62964 5.87078 8.62964 4.55361C8.62964 3.23644 7.57808 2.18487 6.26091 2.18487Z" fill="white" stroke="white" stroke-width="0.430679"/>
</svg>
