<svg width="36" height="36" viewBox="0 0 36 36" fill="none" xmlns="http://www.w3.org/2000/svg">
<g clip-path="url(#clip0_114_2410)">
<path d="M18 36C27.9411 36 36 27.9412 36 18C36 8.05892 27.9411 4.57764e-05 18 4.57764e-05C8.05888 4.57764e-05 0 8.05892 0 18C0 27.9412 8.05888 36 18 36Z" fill="#3C5A9A"/>
<path d="M23.853 5.52505H19.8656C17.4993 5.52505 14.8673 6.52028 14.8673 9.9503C14.8789 11.1455 14.8673 12.2901 14.8673 13.5782H12.1299V17.9344H14.9521V30.4749H20.138V17.8516H23.5608L23.8705 13.566H20.0486C20.0486 13.566 20.0572 11.6596 20.0486 11.106C20.0486 9.7505 21.459 9.82812 21.5439 9.82812C22.215 9.82812 23.52 9.83008 23.855 9.82812V5.52505H23.853Z" fill="white"/>
</g>
<defs>
<clipPath id="clip0_114_2410">
<rect width="36" height="36" fill="white"/>
</clipPath>
</defs>
</svg>
