<svg width="20" height="20" viewBox="0 0 20 20" fill="none" xmlns="http://www.w3.org/2000/svg">
<path d="M10.5806 2.10019C10.305 1.37321 9.26189 1.37321 8.9854 2.10019L7.20238 7.03922C7.07749 7.36654 6.75965 7.58446 6.40477 7.58446H2.02304C1.21336 7.58446 0.860204 8.59225 1.49675 9.08581L4.61486 11.8913C4.75454 11.9986 4.85661 12.1475 4.90644 12.3165C4.95627 12.4855 4.95129 12.6659 4.89222 12.8319L3.75351 17.658C3.47615 18.4333 4.37368 19.0991 5.05243 18.6219L9.28773 15.9345C9.43277 15.8325 9.60573 15.7778 9.78301 15.7778C9.96029 15.7778 10.1333 15.8325 10.2783 15.9345L14.5136 18.6219C15.1915 19.0991 16.0899 18.4324 15.8125 17.658L14.6738 12.8319C14.6147 12.6659 14.6098 12.4855 14.6596 12.3165C14.7094 12.1475 14.8115 11.9986 14.9512 11.8913L18.0693 9.08581C18.7067 8.59225 18.3518 7.58446 17.5438 7.58446H13.1621C12.9896 7.58504 12.821 7.53321 12.6785 7.43585C12.5361 7.33849 12.4266 7.20018 12.3645 7.03922L10.5815 2.10019H10.5806Z" stroke="white" stroke-width="1.86915" stroke-linecap="round" stroke-linejoin="round"/>
</svg>
