<svg width="26" height="26" viewBox="0 0 26 26" fill="none" xmlns="http://www.w3.org/2000/svg">
<path d="M9.05422 0.846392C5.92222 1.91919 3.25102 4.26639 1.76782 7.22559C1.24942 8.24799 0.875016 9.33519 0.651816 10.4584C0.0830158 13.252 0.479016 16.2256 1.76782 18.7744C2.60302 20.4376 3.80542 21.9136 5.25982 23.0656C6.63502 24.16 8.23342 24.9664 9.93262 25.42C12.071 25.996 14.3534 25.9816 16.5134 25.492C18.4646 25.0456 20.3078 24.1096 21.7766 22.756C23.3318 21.3232 24.4406 19.444 25.031 17.4208C25.6718 15.2104 25.7582 12.856 25.355 10.5952C21.323 10.5952 17.291 10.5952 13.2518 10.5952C13.2518 12.2656 13.2518 13.9432 13.2518 15.6136C15.5846 15.6136 17.9246 15.6136 20.2574 15.6136C19.9838 17.2192 19.0334 18.6808 17.6798 19.588C16.8302 20.1568 15.8582 20.5312 14.8502 20.704C13.835 20.8768 12.791 20.8984 11.783 20.6968C10.7534 20.4952 9.77422 20.0632 8.91742 19.4584C7.54942 18.5008 6.50542 17.0896 5.97262 15.5128C5.42542 13.9072 5.41822 12.1144 5.97262 10.5088C6.35422 9.37839 6.99502 8.32719 7.83742 7.47759C8.87422 6.41199 10.2206 5.65599 11.675 5.34639C12.9206 5.07999 14.231 5.13039 15.4478 5.49759C16.4846 5.81439 17.435 6.37599 18.2198 7.12479C19.0118 6.33999 19.7966 5.54799 20.5886 4.76319C20.999 4.33839 21.4382 3.93519 21.8414 3.49599C20.6462 2.38719 19.235 1.49439 17.7014 0.932792C14.951 -0.0968077 11.8334 -0.118408 9.05422 0.846392Z" fill="white"/>
<path d="M9.05459 0.846399C11.8338 -0.118401 14.9514 -0.0968006 17.7162 0.925599C19.2498 1.4872 20.6538 2.38 21.8562 3.4888C21.453 3.9208 21.021 4.3312 20.6034 4.756C19.8114 5.5408 19.0266 6.3328 18.2346 7.1176C17.4498 6.3688 16.4994 5.8 15.4626 5.4904C14.2458 5.1232 12.9354 5.0728 11.6898 5.3392C10.2354 5.6488 8.88899 6.412 7.85219 7.4704C7.00979 8.32 6.36899 9.3712 5.98739 10.5016C4.58339 9.4144 3.17939 8.32 1.77539 7.2328C3.25139 4.2664 5.92259 1.9192 9.05459 0.846399Z" fill="#E94435"/>
<path d="M0.651816 10.4584C0.875016 9.3352 1.25662 8.248 1.76782 7.2256C3.17182 8.3128 4.57582 9.4072 5.97982 10.4944C5.42542 12.1 5.43262 13.8928 5.97982 15.4984C4.57582 16.5856 3.17182 17.68 1.76782 18.7672C0.479016 16.2328 0.0830158 13.252 0.651816 10.4584Z" fill="#F8BB15"/>
<path d="M13.259 10.588C17.291 10.588 21.323 10.588 25.3622 10.588C25.7654 12.8488 25.679 15.2032 25.0382 17.4136C24.4478 19.4368 23.339 21.3232 21.7838 22.7488C20.423 21.6904 19.055 20.632 17.7014 19.5736C19.055 18.6736 20.0054 17.2048 20.279 15.5992C17.9462 15.5992 15.6062 15.5992 13.2734 15.5992C13.2518 13.936 13.259 12.2656 13.259 10.588Z" fill="#547DBE"/>
<path d="M1.76758 18.7744C3.17158 17.6872 4.57558 16.5928 5.97958 15.5056C6.51238 17.0896 7.55638 18.4936 8.92438 19.4512C9.78118 20.056 10.7604 20.4808 11.79 20.6896C12.798 20.8912 13.8492 20.8696 14.8572 20.6968C15.8652 20.524 16.8372 20.1496 17.6868 19.5808C19.0476 20.6392 20.4156 21.6976 21.7692 22.756C20.3004 24.1168 18.4572 25.0456 16.506 25.492C14.3532 25.9816 12.0708 25.996 9.92518 25.42C8.22598 24.9664 6.62758 24.16 5.25238 23.0656C3.80518 21.9064 2.60278 20.4304 1.76758 18.7744Z" fill="#34A751"/>
</svg>
