<svg width="18" height="20" viewBox="0 0 18 20" fill="none" xmlns="http://www.w3.org/2000/svg">
<path d="M15.6937 8.4484C15.6591 8.0167 15.4631 7.61388 15.1448 7.32017C14.8265 7.02646 14.4093 6.86342 13.9762 6.86351H3.58991C3.15681 6.86342 2.73957 7.02646 2.42128 7.32017C2.10299 7.61388 1.90701 8.0167 1.87236 8.4484L1.18069 17.062C1.16167 17.299 1.19192 17.5374 1.26956 17.7622C1.34719 17.987 1.47052 18.1932 1.63178 18.368C1.79304 18.5428 1.98874 18.6823 2.20655 18.7777C2.42436 18.8731 2.65958 18.9224 2.89738 18.9225H14.6687C14.9065 18.9224 15.1417 18.8731 15.3595 18.7777C15.5773 18.6823 15.773 18.5428 15.9343 18.368C16.0956 18.1932 16.2189 17.987 16.2965 17.7622C16.3742 17.5374 16.4044 17.299 16.3854 17.062L15.6937 8.4484V8.4484Z" stroke="white" stroke-width="1.86915" stroke-linecap="round" stroke-linejoin="round"/>
<path d="M5.33761 9.44758V5.14079C5.33761 4.227 5.70061 3.35065 6.34675 2.7045C6.9929 2.05836 7.86925 1.69536 8.78304 1.69536C9.69683 1.69536 10.5732 2.05836 11.2193 2.7045C11.8655 3.35065 12.2285 4.227 12.2285 5.14079V9.44758" stroke="white" stroke-width="1.86915" stroke-linecap="round" stroke-linejoin="round"/>
</svg>
