<svg width="25" height="25" viewBox="0 0 25 25" fill="none" xmlns="http://www.w3.org/2000/svg">
<path d="M19.7916 14.5841V6.25081C19.7916 5.10498 18.8541 4.16748 17.7083 4.16748H3.12497C1.97913 4.16748 1.04163 5.10498 1.04163 6.25081V14.5841C1.04163 15.73 1.97913 16.6675 3.12497 16.6675H17.7083C18.8541 16.6675 19.7916 15.73 19.7916 14.5841ZM17.7083 14.5841H3.12497V6.25081H17.7083V14.5841ZM10.4166 7.29248C8.68747 7.29248 7.29163 8.68831 7.29163 10.4175C7.29163 12.1466 8.68747 13.5425 10.4166 13.5425C12.1458 13.5425 13.5416 12.1466 13.5416 10.4175C13.5416 8.68831 12.1458 7.29248 10.4166 7.29248ZM23.9583 7.29248V18.7508C23.9583 19.8966 23.0208 20.8341 21.875 20.8341H4.16663C4.16663 19.7925 4.16663 19.8966 4.16663 18.7508H21.875V7.29248C23.0208 7.29248 22.9166 7.29248 23.9583 7.29248Z" fill="white"/>
</svg>
