<svg width="29" height="27" viewBox="0 0 29 27" fill="none" xmlns="http://www.w3.org/2000/svg">
<path d="M26.2319 9.5239C23.6087 9.5239 22.5362 7.69318 23.8406 5.44769C24.5942 4.14616 24.1449 2.48707 22.8261 1.74334L20.3188 0.327386C19.1739 -0.344832 17.6957 0.0556388 17.0145 1.18554L16.8551 1.45728C15.5507 3.70278 13.4058 3.70278 12.087 1.45728L11.9275 1.18554C11.2754 0.0556388 9.7971 -0.344832 8.65217 0.327386L6.14493 1.74334C4.82609 2.48707 4.37681 4.16046 5.13043 5.46199C6.44928 7.69318 5.37681 9.5239 2.75362 9.5239C1.24638 9.5239 0 10.7396 0 12.2414V14.7586C0 16.2461 1.23188 17.4761 2.75362 17.4761C5.37681 17.4761 6.44928 19.3068 5.13043 21.5523C4.37681 22.8538 4.82609 24.5129 6.14493 25.2567L8.65217 26.6726C9.7971 27.3448 11.2754 26.9444 11.9565 25.8145L12.1159 25.5427C13.4203 23.2972 15.5652 23.2972 16.8841 25.5427L17.0435 25.8145C17.7246 26.9444 19.2029 27.3448 20.3478 26.6726L22.8551 25.2567C24.1739 24.5129 24.6232 22.8395 23.8696 21.5523C22.5507 19.3068 23.6232 17.4761 26.2464 17.4761C27.7536 17.4761 29 16.2604 29 14.7586V12.2414C28.9855 10.7539 27.7536 9.5239 26.2319 9.5239ZM14.4928 18.1483C11.8986 18.1483 9.78261 16.0602 9.78261 13.5C9.78261 10.9398 11.8986 8.85168 14.4928 8.85168C17.087 8.85168 19.2029 10.9398 19.2029 13.5C19.2029 16.0602 17.087 18.1483 14.4928 18.1483Z" fill="white"/>
</svg>
