<svg width="21" height="21" viewBox="0 0 21 21" fill="none" xmlns="http://www.w3.org/2000/svg">
<path d="M1.92037 17.4248V10.6838C1.92032 10.2148 2.01602 9.75078 2.2016 9.32007C2.38719 8.88936 2.65875 8.50107 2.99965 8.179L9.35044 2.17705C9.6703 1.87465 10.0938 1.70616 10.5339 1.70616C10.9741 1.70616 11.3976 1.87465 11.7175 2.17705L18.0682 8.179C18.4092 8.50107 18.6807 8.88936 18.8663 9.32007C19.0519 9.75078 19.1476 10.2148 19.1475 10.6838V17.4248C19.1475 17.8817 18.966 18.3199 18.643 18.643C18.3199 18.966 17.8817 19.1475 17.4248 19.1475H3.64309C3.18619 19.1475 2.74801 18.966 2.42494 18.643C2.10187 18.3199 1.92037 17.8817 1.92037 17.4248Z" stroke="white" stroke-width="1.86915" stroke-linecap="round" stroke-linejoin="round"/>
</svg>
