<svg width="255" height="258" viewBox="0 0 255 258" fill="none" xmlns="http://www.w3.org/2000/svg">
<mask id="mask0_701_828" style="mask-type:alpha" maskUnits="userSpaceOnUse" x="0" y="0" width="255" height="258">
<rect width="255" height="258" fill="#D9D9D9"/>
</mask>
<g mask="url(#mask0_701_828)">
<mask id="path-2-inside-1_701_828" fill="white">
<path d="M250.73 132.015C250.73 100.254 238.614 69.6893 216.852 46.5549C195.091 23.4205 165.323 9.45922 133.621 7.51862C101.92 5.57802 70.6718 15.8043 46.251 36.1117C21.8302 56.419 6.07623 85.2777 2.20228 116.802C-1.67167 148.326 6.62624 180.14 25.4036 205.756C44.1809 231.372 72.0231 248.86 103.251 254.653C134.48 260.445 166.742 254.107 193.457 236.93C220.172 219.753 239.329 193.031 247.019 162.215L126.001 132.015H250.73Z"/>
</mask>
<path d="M250.73 132.015C250.73 100.254 238.614 69.6893 216.852 46.5549C195.091 23.4205 165.323 9.45922 133.621 7.51862C101.92 5.57802 70.6718 15.8043 46.251 36.1117C21.8302 56.419 6.07623 85.2777 2.20228 116.802C-1.67167 148.326 6.62624 180.14 25.4036 205.756C44.1809 231.372 72.0231 248.86 103.251 254.653C134.48 260.445 166.742 254.107 193.457 236.93C220.172 219.753 239.329 193.031 247.019 162.215L126.001 132.015H250.73Z" stroke="url(#paint0_linear_701_828)" stroke-width="1.51672" mask="url(#path-2-inside-1_701_828)"/>
<mask id="path-3-inside-2_701_828" fill="white">
<path d="M39.6031 215.003C37.6872 216.925 34.5668 216.937 32.7246 214.944C13.5158 194.158 2.22993 167.115 0.866568 138.357C-0.57559 107.938 9.18448 77.7023 28.3055 53.3553C47.4266 29.0084 74.5866 12.2332 104.662 6.19439C133.077 0.488952 162.238 4.74003 187.227 18.1338C189.639 19.4266 190.397 22.4868 188.972 24.8232V24.8232C187.576 27.1131 184.604 27.8463 182.237 26.5845C159.233 14.3204 132.419 10.4398 106.288 15.6865C78.5442 21.2572 53.4895 36.7321 35.8505 59.1919C18.2116 81.6517 9.208 109.544 10.5384 137.605C11.7899 164.005 22.1061 188.839 39.6691 207.975C41.5045 209.975 41.519 213.08 39.6031 215.003V215.003Z"/>
</mask>
<path d="M39.6031 215.003C37.6872 216.925 34.5668 216.937 32.7246 214.944C13.5158 194.158 2.22993 167.115 0.866568 138.357C-0.57559 107.938 9.18448 77.7023 28.3055 53.3553C47.4266 29.0084 74.5866 12.2332 104.662 6.19439C133.077 0.488952 162.238 4.74003 187.227 18.1338C189.639 19.4266 190.397 22.4868 188.972 24.8232V24.8232C187.576 27.1131 184.604 27.8463 182.237 26.5845C159.233 14.3204 132.419 10.4398 106.288 15.6865C78.5442 21.2572 53.4895 36.7321 35.8505 59.1919C18.2116 81.6517 9.208 109.544 10.5384 137.605C11.7899 164.005 22.1061 188.839 39.6691 207.975C41.5045 209.975 41.519 213.08 39.6031 215.003V215.003Z" stroke="url(#paint1_linear_701_828)" stroke-width="1.51672" mask="url(#path-3-inside-2_701_828)"/>
</g>
<defs>
<linearGradient id="paint0_linear_701_828" x1="206.016" y1="305.381" x2="81.2862" y2="189.281" gradientUnits="userSpaceOnUse">
<stop stop-color="#FEFFDE"/>
<stop offset="1" stop-color="#FFC9BF" stop-opacity="0"/>
</linearGradient>
<linearGradient id="paint1_linear_701_828" x1="274.343" y1="97.8034" x2="40.1785" y2="35.5576" gradientUnits="userSpaceOnUse">
<stop stop-color="#FFBE5E"/>
<stop offset="0.4375" stop-color="white"/>
<stop offset="0.703125" stop-color="#81FFD8"/>
<stop offset="1" stop-color="#80FFD6" stop-opacity="0.24"/>
</linearGradient>
</defs>
</svg>
